<?xml version="1.0" encoding="utf-8"?>
<!-- Generator: Adobe Illustrator 16.0.3, SVG Export Plug-In . SVG Version: 6.00 Build 0)  -->
<!DOCTYPE svg PUBLIC "-//W3C//DTD SVG 1.1//EN" "http://www.w3.org/Graphics/SVG/1.1/DTD/svg11.dtd">
<svg version="1.1" xmlns="http://www.w3.org/2000/svg" xmlns:xlink="http://www.w3.org/1999/xlink" x="0px" y="0px" width="512px"
	 height="512px" viewBox="0 0 512 512" enable-background="new 0 0 512 512" xml:space="preserve">
<g id="Layer_1">
	<path fill="#4370FF" d="M464,376V136L264,16h-16L48,136v240l200,120h16L464,376z"/>
	<path d="M373.637,326.844l-28.356-28.357L387.766,256l-42.485-42.486l28.356-28.357L444.48,256L373.637,326.844z"/>
	<path d="M411.52,123.12L448,145.04v221.92L259.6,480h-7.2L64,366.96V145.04L252.4,32h7.2L383.2,106.16l23.28-23.28L268.4,0h-24.8
		L32,126.96v258.08L243.6,512h24.8L480,385.04V126.96l-45.2-27.12L411.52,123.12z"/>
	<path d="M139.144,185.156l28.356,28.357L125.015,256l42.485,42.485l-28.356,28.358L68.3,256L139.144,185.156z"/>
</g>
<g id="Layer_2">
	<path fill="#5A4146" d="M294.613,246.347v1.936c0,2.371,0.382,4.728,1.132,6.977l4.384,13.152h8.274v-30.339h-5.517
		C298.317,238.073,294.613,241.777,294.613,246.347z"/>
	<path fill="#694B4B" d="M332.377,252.077l-4.667,16.335l-22.065-19.307c-3.046,0-5.516-2.47-5.516-5.516l0,0
		c0-4.57,3.705-8.274,8.274-8.274h19.306c3.047,0,5.517,2.47,5.517,5.516v5.184C333.227,248.065,332.939,250.105,332.377,252.077z"
		/>
	<rect x="305.644" y="276.688" fill="#E6AF78" width="16.548" height="12.207"/>
	<path fill="#D29B6E" d="M305.645,281.752c2.559,1.039,5.348,1.625,8.275,1.625c2.926,0,5.715-0.586,8.273-1.625v-5.066h-16.549
		V281.752L305.645,281.752z"/>
	<path fill="#D5DCED" d="M335.498,287.178l-13.305-3.801l-8.273,5.49l-8.275-5.49l-13.305,3.801
		c-3.553,1.016-6.001,4.262-6.001,7.957v20.164c0,1.523,1.235,2.758,2.758,2.758h49.646c1.523,0,2.758-1.234,2.758-2.758v-20.164
		C341.5,291.439,339.051,288.193,335.498,287.178z"/>
	<polygon fill="#AFB9D2" points="316.678,318.057 311.161,318.057 312.54,288.893 315.299,288.893 	"/>
	<path fill="#F0C087" d="M313.92,279.443L313.92,279.443c-9.141,0-16.549-7.408-16.549-16.548v-3.231c0-1.463,0.581-2.865,1.615-3.9
		l5.002-5.001c1.059-1.059,2.507-1.668,4.004-1.621c8.816,0.278,16.62,2.167,20.887,6.333c1.044,1.02,1.589,2.447,1.589,3.906v3.515
		C330.468,272.035,323.059,279.443,313.92,279.443z"/>
	<path fill="#E6AF78" d="M305.645,260.348c0-3.182,2.672-5.71,5.848-5.507c5.568,0.355,13.83,1.286,18.898,3.724
		c-0.165-1.164-0.665-2.262-1.512-3.09c-4.267-4.167-12.07-6.055-20.887-6.333v0v0c-1.497-0.047-2.945,0.562-4.004,1.621
		l-5.002,5.001c-1.034,1.034-1.615,2.438-1.615,3.901v3.23c0,7.547,5.057,13.901,11.963,15.891
		c-2.299-2.836-3.688-6.436-3.688-10.374L305.645,260.348L305.645,260.348z"/>
	<path fill="#C7CFE2" d="M330.468,303.352c0-2.193,0.872-4.299,2.423-5.85l7.1-7.1c0.949,1.355,1.51,2.988,1.51,4.732v20.164
		c0,1.523-1.234,2.758-2.758,2.758h-8.274V303.352L330.468,303.352z"/>
	<path fill="#959CB5" d="M315.299,294.408h-2.759c-0.761,0-1.379-0.617-1.379-1.379v-4.137h5.517v4.137
		C316.678,293.791,316.061,294.408,315.299,294.408z"/>
	<g>
		<path fill="#C7CFE2" d="M313.92,288.867l-4.676,3.57c-0.805,0.615-1.969,0.369-2.455-0.52l-4.194-7.658l1.688-2.574
			c0.374-0.572,1.172-0.669,1.672-0.205L313.92,288.867z"/>
		<path fill="#C7CFE2" d="M313.92,288.867l4.674,3.571c0.806,0.615,1.97,0.368,2.457-0.521l4.193-7.658l-1.688-2.574
			c-0.374-0.571-1.173-0.668-1.673-0.205L313.92,288.867z"/>
	</g>
	<path fill="#5A4146" d="M219.87,278.293c-2.357-6.246-4.226-16.98-4.63-22.57c-0.768-10.636-8.784-19.307-19.619-19.307
		s-18.851,8.671-19.619,19.307c-0.404,5.589-2.273,16.324-4.63,22.57c-0.52,1.376,0.08,2.895,1.436,3.508
		c2.526,1.145,7.911,3.388,14.405,4.262h16.816c6.464-0.876,11.887-3.119,14.405-4.262
		C219.79,281.188,220.39,279.669,219.87,278.293z"/>
	<path fill="#694B4B" d="M218.435,281.802c1.355-0.614,1.955-2.132,1.436-3.509c-2.357-6.245-4.227-16.98-4.63-22.57
		c-0.768-10.636-8.784-19.306-19.618-19.306c-0.027,0-0.055,0-0.082,0c-8.314,0.034-11.252,11.372-4.095,15.603
		c0.43,0.254,0.705,0.376,0.705,0.376l6.269,33.666h5.611C210.494,285.186,215.916,282.943,218.435,281.802z"/>
	<path fill="#E6AF78" d="M215.571,291.6l-8.925-4.463c-1.869-0.934-3.05-2.845-3.049-4.934l0-8.275h-16.549v8.275
		c0,2.09-1.18,3.999-3.049,4.934l-8.925,4.463c-2.803,1.4-4.574,4.266-4.574,7.4v16.299c0,1.521,1.235,2.758,2.758,2.758h44.129
		c1.523,0,2.758-1.236,2.758-2.758V299C220.145,295.865,218.375,293,215.571,291.6z"/>
	<path fill="#D29B6E" d="M195.323,284.96c2.97,0,5.814-0.612,8.422-1.702c-0.068-0.348-0.148-0.693-0.148-1.056l0-8.274h-16.549
		v8.275c0,0.363-0.08,0.711-0.149,1.061C189.509,284.348,192.352,284.96,195.323,284.96z"/>
	<path fill="#D5DCED" d="M215.571,291.6l-6.358-3.18c-2.949,4.553-8.062,7.572-13.89,7.572s-10.942-3.02-13.891-7.572l-6.358,3.18
		c-2.803,1.4-4.574,4.266-4.574,7.4v16.299c0,1.523,1.235,2.758,2.758,2.758h44.129c1.523,0,2.758-1.234,2.758-2.758V299
		C220.145,295.865,218.375,293,215.571,291.6z"/>
	<path fill="#F0C087" d="M195.323,279.443L195.323,279.443c-8.414,0-15.361-6.278-16.411-14.406
		c-0.152-1.178,0.414-2.332,1.474-2.867c1.27-0.641,3.115-1.721,4.882-3.297c1.967-1.755,3.122-3.606,3.773-4.965
		c0.562-1.17,1.852-1.832,3.11-1.511c9.711,2.477,16.322,7.529,18.721,9.592c0.644,0.554,1.015,1.37,0.949,2.217
		C211.152,272.732,204.021,279.443,195.323,279.443z"/>
	<path fill="#E6AF78" d="M210.872,261.988c-2.398-2.062-9.01-7.115-18.721-9.592c-1.258-0.321-2.548,0.341-3.109,1.511
		c-0.494,1.03-1.31,2.341-2.521,3.679c0,0.004-0.001,0.007-0.001,0.01c-0.376,0.426-0.776,0.854-1.251,1.277
		c-1.767,1.577-3.612,2.656-4.882,3.297c-1.06,0.535-1.626,1.69-1.474,2.867c0.944,7.3,6.655,13.109,13.902,14.219
		c-3.302-2.247-5.765-5.336-5.765-10.844v-3.934c0.626-0.462,1.257-0.924,1.891-1.489c1.533-1.368,2.871-2.95,3.944-4.653
		c7.429,2.318,12.465,6.18,14.375,7.821c0.523,0.458,1.82,1.653,3.338,3.077c0.653-1.57,1.084-3.257,1.223-5.029
		C211.886,263.358,211.515,262.542,210.872,261.988z"/>
	<path fill="#C7CFE2" d="M172.181,294.027c-1.062,1.41-1.681,3.141-1.681,4.973v16.299c0,1.523,1.235,2.758,2.758,2.758h8.274
		v-13.898c0-1.674-0.762-3.26-2.07-4.307L172.181,294.027z"/>
	<path fill="#FF507D" d="M295.625,287.836l-23.076-8.393L256,284.96l-16.548-5.517l-23.077,8.393
		c-4.36,1.585-7.262,5.729-7.262,10.367v17.096c0,1.523,1.235,2.758,2.758,2.758h88.258c1.523,0,2.758-1.234,2.758-2.758v-17.096
		C302.887,293.564,299.984,289.42,295.625,287.836z"/>
	<polygon fill="#707487" points="253.111,290.477 250.484,318.057 261.516,318.057 258.889,290.477 	"/>
	<path fill="#5B5D6E" d="M258.896,294.266h-5.791c-1.066,0-1.931-0.865-1.931-1.932v-7.374h9.652v7.374
		C260.826,293.4,259.962,294.266,258.896,294.266z"/>
	<path fill="#D23C69" d="M299.918,290.687c1.863,1.999,2.969,4.661,2.969,7.517v17.096c0,1.523-1.234,2.758-2.758,2.758h-13.79
		v-9.221c0-2.926,1.162-5.732,3.231-7.801L299.918,290.687z"/>
	<path fill="#5A4146" d="M286.339,222.565V199.46c0-3.046-2.47-5.516-5.517-5.516h-33.096c-12.186,0-22.065,9.878-22.065,22.064
		v6.557c0,2.964,0.478,5.91,1.416,8.722l0.918,2.754c0.281,0.844,0.425,1.727,0.425,2.617v1.415h55.161v-1.415
		c0-0.89,0.144-1.773,0.425-2.617l0.918-2.754C285.861,228.474,286.339,225.529,286.339,222.565z"/>
	<path fill="#694B4B" d="M239.452,205.148c0,6.188,5.017,11.205,11.205,11.205h1.551l0.749,21.72h30.624v-1.416
		c0-0.89,0.144-1.773,0.425-2.617l0.918-2.754c0.938-2.812,1.415-5.757,1.415-8.722V199.46c0-3.046-2.469-5.516-5.516-5.516h-30.166
		C244.468,193.944,239.452,198.96,239.452,205.148z"/>
	<rect x="239.451" y="260.139" fill="#E6AF78" width="33.098" height="24.822"/>
	<path fill="#D29B6E" d="M239.452,269.463c4.872,2.822,10.513,4.465,16.548,4.465c6.035,0,11.676-1.643,16.549-4.465v-9.326h-33.098
		L239.452,269.463L239.452,269.463z"/>
	<g>
		<path fill="#D23C69" d="M256,284.96l-8.796,8.796c-1.183,1.184-3.137,1.05-4.147-0.282l-9.121-12.019l2.386-5.027
			c0.704-1.483,2.541-2.027,3.938-1.166L256,284.96z"/>
		<path fill="#D23C69" d="M256,284.96l8.797,8.796c1.182,1.184,3.137,1.05,4.146-0.282l9.121-12.019l-2.386-5.027
			c-0.704-1.483-2.54-2.027-3.938-1.166L256,284.96z"/>
	</g>
	<path fill="#F0C087" d="M256,268.412L256,268.412c-15.232,0-27.581-12.349-27.581-27.581V237.6c0-1.463,0.581-2.866,1.615-3.9
		l2.285-2.285c1.035-1.034,1.616-2.437,1.616-3.9v-6.612c0-1.277,0.857-2.386,2.101-2.68c6.523-1.541,26.822-5.19,40.635,4.97
		c0.897,0.66,1.394,1.744,1.394,2.857v1.465c0,1.463,0.58,2.866,1.615,3.9l2.285,2.285c1.033,1.034,1.615,2.437,1.615,3.9v3.231
		C283.58,256.063,271.232,268.412,256,268.412z"/>
	<path fill="#E6AF78" d="M276.672,223.192c-9.717-7.146-22.622-7.455-31.704-6.477c-3.831,0.413-6.997,1.05-8.932,1.507
		c-1.243,0.293-2.101,1.403-2.101,2.68v6.611c0,1.463-0.581,2.866-1.616,3.901l-2.285,2.285c-1.035,1.035-1.616,2.438-1.616,3.901
		v3.231c0,14.103,10.59,25.712,24.248,27.36c-4.759-4.956-7.7-11.672-7.7-19.086v-20.16c0-2.795,2.079-5.131,4.852-5.479
		c6.619-0.83,18.742-1.329,28.246,4.047v-1.465C278.064,224.935,277.568,223.851,276.672,223.192z"/>
	<path fill="#D23C69" d="M212.082,290.687c-1.862,1.999-2.969,4.661-2.969,7.517v17.096c0,1.523,1.235,2.758,2.758,2.758h13.79
		v-9.221c0-2.926-1.162-5.732-3.231-7.801L212.082,290.687z"/>
</g>
</svg>
